<mxfile host="65bd71144e" modified="2020-12-15T08:14:43.038Z" agent="5.0 (Macintosh; Intel Mac OS X 11_0_0) AppleWebKit/537.36 (KHTML, like Gecko) Code/1.52.0 Chrome/83.0.4103.122 Electron/9.3.5 Safari/537.36" etag="3v7YiU8H5j19J34mXy8g" version="13.10.0">
    <diagram id="0sh1uLvX4yQ7nIrnv2so" name="第 1 页">
        <mxGraphModel dx="1168" dy="678" grid="1" gridSize="10" guides="1" tooltips="1" connect="1" arrows="1" fold="1" page="1" pageScale="1" pageWidth="850" pageHeight="1100" math="0" shadow="0">
            <root>
                <mxCell id="0"/>
                <mxCell id="1" parent="0"/>
                <mxCell id="28fKL3Tlx96S2agYIznk-7" style="edgeStyle=orthogonalEdgeStyle;rounded=0;orthogonalLoop=1;jettySize=auto;html=1;exitX=1;exitY=0.5;exitDx=0;exitDy=0;entryX=0;entryY=0.5;entryDx=0;entryDy=0;" edge="1" parent="1" source="28fKL3Tlx96S2agYIznk-1" target="28fKL3Tlx96S2agYIznk-2">
                    <mxGeometry relative="1" as="geometry"/>
                </mxCell>
                <mxCell id="28fKL3Tlx96S2agYIznk-1" value="开始" style="rounded=0;whiteSpace=wrap;html=1;" vertex="1" parent="1">
                    <mxGeometry x="40" y="300" width="120" height="60" as="geometry"/>
                </mxCell>
                <mxCell id="28fKL3Tlx96S2agYIznk-8" style="edgeStyle=orthogonalEdgeStyle;rounded=0;orthogonalLoop=1;jettySize=auto;html=1;exitX=1;exitY=0.5;exitDx=0;exitDy=0;" edge="1" parent="1" source="28fKL3Tlx96S2agYIznk-2" target="28fKL3Tlx96S2agYIznk-4">
                    <mxGeometry relative="1" as="geometry"/>
                </mxCell>
                <mxCell id="28fKL3Tlx96S2agYIznk-2" value="数字和符号进栈" style="rounded=1;whiteSpace=wrap;html=1;" vertex="1" parent="1">
                    <mxGeometry x="240" y="300" width="120" height="60" as="geometry"/>
                </mxCell>
                <mxCell id="28fKL3Tlx96S2agYIznk-9" value="&lt;font style=&quot;font-size: 20px&quot;&gt;不是&lt;/font&gt;" style="edgeStyle=orthogonalEdgeStyle;rounded=0;orthogonalLoop=1;jettySize=auto;html=1;exitX=1;exitY=0.5;exitDx=0;exitDy=0;entryX=0;entryY=0.5;entryDx=0;entryDy=0;" edge="1" parent="1" source="28fKL3Tlx96S2agYIznk-4" target="28fKL3Tlx96S2agYIznk-6">
                    <mxGeometry relative="1" as="geometry"/>
                </mxCell>
                <mxCell id="28fKL3Tlx96S2agYIznk-22" value="" style="edgeStyle=orthogonalEdgeStyle;rounded=0;orthogonalLoop=1;jettySize=auto;html=1;entryX=1;entryY=0.5;entryDx=0;entryDy=0;" edge="1" parent="1" source="28fKL3Tlx96S2agYIznk-4" target="28fKL3Tlx96S2agYIznk-21">
                    <mxGeometry relative="1" as="geometry">
                        <Array as="points">
                            <mxPoint x="480" y="470"/>
                        </Array>
                    </mxGeometry>
                </mxCell>
                <mxCell id="28fKL3Tlx96S2agYIznk-4" value="是否是=" style="rhombus;whiteSpace=wrap;html=1;" vertex="1" parent="1">
                    <mxGeometry x="440" y="290" width="80" height="80" as="geometry"/>
                </mxCell>
                <mxCell id="28fKL3Tlx96S2agYIznk-11" style="edgeStyle=orthogonalEdgeStyle;rounded=0;orthogonalLoop=1;jettySize=auto;html=1;exitX=1;exitY=0.5;exitDx=0;exitDy=0;" edge="1" parent="1" source="28fKL3Tlx96S2agYIznk-5">
                    <mxGeometry relative="1" as="geometry">
                        <mxPoint x="200" y="330.2352941176471" as="targetPoint"/>
                        <Array as="points">
                            <mxPoint x="900" y="330"/>
                            <mxPoint x="900" y="170"/>
                            <mxPoint x="200" y="170"/>
                        </Array>
                    </mxGeometry>
                </mxCell>
                <mxCell id="28fKL3Tlx96S2agYIznk-5" value="进数栈" style="rounded=1;whiteSpace=wrap;html=1;" vertex="1" parent="1">
                    <mxGeometry x="760" y="300" width="120" height="60" as="geometry"/>
                </mxCell>
                <mxCell id="28fKL3Tlx96S2agYIznk-10" value="&lt;font style=&quot;font-size: 20px&quot;&gt;是&lt;/font&gt;" style="edgeStyle=orthogonalEdgeStyle;rounded=0;orthogonalLoop=1;jettySize=auto;html=1;exitX=1;exitY=0.5;exitDx=0;exitDy=0;entryX=0;entryY=0.5;entryDx=0;entryDy=0;" edge="1" parent="1" source="28fKL3Tlx96S2agYIznk-6" target="28fKL3Tlx96S2agYIznk-5">
                    <mxGeometry relative="1" as="geometry"/>
                </mxCell>
                <mxCell id="28fKL3Tlx96S2agYIznk-14" value="" style="edgeStyle=orthogonalEdgeStyle;rounded=0;orthogonalLoop=1;jettySize=auto;html=1;" edge="1" parent="1" source="28fKL3Tlx96S2agYIznk-6" target="28fKL3Tlx96S2agYIznk-13">
                    <mxGeometry relative="1" as="geometry"/>
                </mxCell>
                <mxCell id="28fKL3Tlx96S2agYIznk-6" value="是否是符号" style="rhombus;whiteSpace=wrap;html=1;" vertex="1" parent="1">
                    <mxGeometry x="600" y="290" width="80" height="80" as="geometry"/>
                </mxCell>
                <mxCell id="28fKL3Tlx96S2agYIznk-16" value="&lt;font style=&quot;font-size: 15px&quot;&gt;栈空或&lt;br&gt;者大于&lt;/font&gt;" style="edgeStyle=orthogonalEdgeStyle;rounded=0;orthogonalLoop=1;jettySize=auto;html=1;exitX=1;exitY=0.5;exitDx=0;exitDy=0;entryX=0;entryY=0.5;entryDx=0;entryDy=0;" edge="1" parent="1" source="28fKL3Tlx96S2agYIznk-13" target="28fKL3Tlx96S2agYIznk-15">
                    <mxGeometry relative="1" as="geometry"/>
                </mxCell>
                <mxCell id="28fKL3Tlx96S2agYIznk-19" style="edgeStyle=orthogonalEdgeStyle;rounded=0;orthogonalLoop=1;jettySize=auto;html=1;exitX=0.5;exitY=1;exitDx=0;exitDy=0;entryX=0.5;entryY=0;entryDx=0;entryDy=0;" edge="1" parent="1" source="28fKL3Tlx96S2agYIznk-13" target="28fKL3Tlx96S2agYIznk-18">
                    <mxGeometry relative="1" as="geometry"/>
                </mxCell>
                <mxCell id="28fKL3Tlx96S2agYIznk-13" value="优先级与栈顶元素相比是大还是小" style="rhombus;whiteSpace=wrap;html=1;" vertex="1" parent="1">
                    <mxGeometry x="600" y="410" width="80" height="80" as="geometry"/>
                </mxCell>
                <mxCell id="28fKL3Tlx96S2agYIznk-17" style="edgeStyle=orthogonalEdgeStyle;rounded=0;orthogonalLoop=1;jettySize=auto;html=1;exitX=1;exitY=0.5;exitDx=0;exitDy=0;" edge="1" parent="1" source="28fKL3Tlx96S2agYIznk-15">
                    <mxGeometry relative="1" as="geometry">
                        <mxPoint x="900" y="330" as="targetPoint"/>
                    </mxGeometry>
                </mxCell>
                <mxCell id="28fKL3Tlx96S2agYIznk-15" value="进符号栈" style="rounded=1;whiteSpace=wrap;html=1;" vertex="1" parent="1">
                    <mxGeometry x="760" y="420" width="120" height="60" as="geometry"/>
                </mxCell>
                <mxCell id="28fKL3Tlx96S2agYIznk-20" style="edgeStyle=orthogonalEdgeStyle;rounded=0;orthogonalLoop=1;jettySize=auto;html=1;exitX=0;exitY=0.5;exitDx=0;exitDy=0;" edge="1" parent="1" source="28fKL3Tlx96S2agYIznk-18">
                    <mxGeometry relative="1" as="geometry">
                        <mxPoint x="200" y="330" as="targetPoint"/>
                    </mxGeometry>
                </mxCell>
                <mxCell id="28fKL3Tlx96S2agYIznk-18" value="把栈中元素运算直至符号可以进符号栈" style="rounded=1;whiteSpace=wrap;html=1;" vertex="1" parent="1">
                    <mxGeometry x="580" y="550" width="120" height="60" as="geometry"/>
                </mxCell>
                <mxCell id="28fKL3Tlx96S2agYIznk-21" value="结束" style="whiteSpace=wrap;html=1;" vertex="1" parent="1">
                    <mxGeometry x="40" y="440" width="120" height="60" as="geometry"/>
                </mxCell>
            </root>
        </mxGraphModel>
    </diagram>
</mxfile>